<mxfile host="app.diagrams.net" modified="2023-05-28T13:07:44.279Z" agent="Mozilla/5.0 (Windows NT 10.0; Win64; x64) AppleWebKit/537.36 (KHTML, like Gecko) Chrome/113.0.0.0 Safari/537.36" etag="CF0ma85VApKQRJNdUnF9" version="21.3.4" type="device">
  <diagram name="Page-1" id="9zt_uhlV35OjN0zecJz6">
    <mxGraphModel dx="3241" dy="2110" grid="1" gridSize="10" guides="1" tooltips="1" connect="1" arrows="1" fold="1" page="1" pageScale="1" pageWidth="850" pageHeight="1100" math="0" shadow="0">
      <root>
        <mxCell id="0" />
        <mxCell id="1" parent="0" />
        <mxCell id="bHNSuGKCr-GM2xsOopNB-10" value="" style="verticalLabelPosition=bottom;html=1;verticalAlign=top;align=center;strokeColor=#009999;fillColor=#00BEF2;shape=mxgraph.azure.sql_database;" parent="1" vertex="1">
          <mxGeometry x="1117" y="142" width="37.5" height="50" as="geometry" />
        </mxCell>
        <mxCell id="bHNSuGKCr-GM2xsOopNB-11" value="DB 1" style="text;html=1;align=center;verticalAlign=middle;resizable=0;points=[];autosize=1;strokeColor=#;fillColor=none;" parent="1" vertex="1">
          <mxGeometry x="1154.5" y="153" width="50" height="30" as="geometry" />
        </mxCell>
        <mxCell id="bHNSuGKCr-GM2xsOopNB-12" value="" style="verticalLabelPosition=bottom;html=1;verticalAlign=top;align=center;strokeColor=#009999;fillColor=#00BEF2;shape=mxgraph.azure.sql_database;" parent="1" vertex="1">
          <mxGeometry x="1117.5" y="307" width="37.5" height="50" as="geometry" />
        </mxCell>
        <mxCell id="bHNSuGKCr-GM2xsOopNB-13" value="DB 2" style="text;html=1;align=center;verticalAlign=middle;resizable=0;points=[];autosize=1;strokeColor=#;fillColor=none;" parent="1" vertex="1">
          <mxGeometry x="1155" y="235" width="50" height="30" as="geometry" />
        </mxCell>
        <mxCell id="bHNSuGKCr-GM2xsOopNB-14" value="" style="verticalLabelPosition=bottom;html=1;verticalAlign=top;align=center;strokeColor=#009999;fillColor=#00BEF2;shape=mxgraph.azure.sql_database;" parent="1" vertex="1">
          <mxGeometry x="1117" y="227" width="37.5" height="50" as="geometry" />
        </mxCell>
        <mxCell id="bHNSuGKCr-GM2xsOopNB-15" value="DB 3" style="text;html=1;align=center;verticalAlign=middle;resizable=0;points=[];autosize=1;strokeColor=#;fillColor=none;" parent="1" vertex="1">
          <mxGeometry x="1154.5" y="320" width="50" height="30" as="geometry" />
        </mxCell>
        <mxCell id="bHNSuGKCr-GM2xsOopNB-17" value="" style="endArrow=classic;startArrow=classic;html=1;rounded=0;entryX=0.5;entryY=1;entryDx=0;entryDy=0;entryPerimeter=0;exitX=0.5;exitY=0;exitDx=0;exitDy=0;exitPerimeter=0;strokeColor=#009999;" parent="1" source="bHNSuGKCr-GM2xsOopNB-14" target="bHNSuGKCr-GM2xsOopNB-10" edge="1">
          <mxGeometry width="50" height="50" relative="1" as="geometry">
            <mxPoint x="1027" y="240" as="sourcePoint" />
            <mxPoint x="1135.7500000000002" y="170" as="targetPoint" />
          </mxGeometry>
        </mxCell>
        <mxCell id="bHNSuGKCr-GM2xsOopNB-18" value="" style="endArrow=classic;startArrow=classic;html=1;rounded=0;exitX=0.5;exitY=0;exitDx=0;exitDy=0;exitPerimeter=0;strokeColor=#009999;" parent="1" source="bHNSuGKCr-GM2xsOopNB-12" target="bHNSuGKCr-GM2xsOopNB-14" edge="1">
          <mxGeometry width="50" height="50" relative="1" as="geometry">
            <mxPoint x="1087" y="340" as="sourcePoint" />
            <mxPoint x="1137" y="290" as="targetPoint" />
          </mxGeometry>
        </mxCell>
        <mxCell id="bHNSuGKCr-GM2xsOopNB-24" value="" style="sketch=0;pointerEvents=1;shadow=0;dashed=0;html=1;strokeColor=#009999;labelPosition=center;verticalLabelPosition=bottom;verticalAlign=top;outlineConnect=0;align=center;shape=mxgraph.office.servers.virtual_application_server;fillColor=#2072B8;" parent="1" vertex="1">
          <mxGeometry x="587" y="134.5" width="48" height="55" as="geometry" />
        </mxCell>
        <mxCell id="bHNSuGKCr-GM2xsOopNB-25" value="" style="sketch=0;pointerEvents=1;shadow=0;dashed=0;html=1;strokeColor=#009999;labelPosition=center;verticalLabelPosition=bottom;verticalAlign=top;outlineConnect=0;align=center;shape=mxgraph.office.servers.virtual_application_server;fillColor=#2072B8;" parent="1" vertex="1">
          <mxGeometry x="586" y="253" width="48" height="55" as="geometry" />
        </mxCell>
        <mxCell id="bHNSuGKCr-GM2xsOopNB-26" value="" style="sketch=0;pointerEvents=1;shadow=0;dashed=0;html=1;strokeColor=#009999;labelPosition=center;verticalLabelPosition=bottom;verticalAlign=top;outlineConnect=0;align=center;shape=mxgraph.office.servers.virtual_application_server;fillColor=#2072B8;" parent="1" vertex="1">
          <mxGeometry x="587" y="350" width="48" height="55" as="geometry" />
        </mxCell>
        <mxCell id="bHNSuGKCr-GM2xsOopNB-31" value="API Server 1" style="text;html=1;align=center;verticalAlign=middle;resizable=0;points=[];autosize=1;strokeColor=#;fillColor=none;" parent="1" vertex="1">
          <mxGeometry x="555" y="106" width="90" height="30" as="geometry" />
        </mxCell>
        <mxCell id="bHNSuGKCr-GM2xsOopNB-32" value="API Server 2" style="text;html=1;align=center;verticalAlign=middle;resizable=0;points=[];autosize=1;strokeColor=#;fillColor=none;" parent="1" vertex="1">
          <mxGeometry x="555" y="223" width="90" height="30" as="geometry" />
        </mxCell>
        <mxCell id="bHNSuGKCr-GM2xsOopNB-33" value="API Server 3&lt;br&gt;" style="text;html=1;align=center;verticalAlign=middle;resizable=0;points=[];autosize=1;strokeColor=#;fillColor=none;" parent="1" vertex="1">
          <mxGeometry x="567" y="405" width="90" height="30" as="geometry" />
        </mxCell>
        <mxCell id="bHNSuGKCr-GM2xsOopNB-34" value="" style="verticalLabelPosition=bottom;html=1;verticalAlign=top;align=center;strokeColor=#009999;fillColor=#00BEF2;shape=mxgraph.azure.load_balancer_generic;pointerEvents=1;rotation=-90;" parent="1" vertex="1">
          <mxGeometry x="495" y="258" width="37.5" height="50" as="geometry" />
        </mxCell>
        <mxCell id="bHNSuGKCr-GM2xsOopNB-37" value="" style="endArrow=classic;startArrow=classic;html=1;rounded=0;fillColor=#3399FF;strokeColor=#009999;exitX=1;exitY=0.5;exitDx=0;exitDy=0;exitPerimeter=0;" parent="1" source="bHNSuGKCr-GM2xsOopNB-34" target="bHNSuGKCr-GM2xsOopNB-24" edge="1">
          <mxGeometry width="50" height="50" relative="1" as="geometry">
            <mxPoint x="265" y="283" as="sourcePoint" />
            <mxPoint x="315" y="233" as="targetPoint" />
            <Array as="points">
              <mxPoint x="515" y="163" />
            </Array>
          </mxGeometry>
        </mxCell>
        <mxCell id="bHNSuGKCr-GM2xsOopNB-38" value="" style="endArrow=classic;startArrow=classic;html=1;rounded=0;fillColor=#3399FF;strokeColor=#009999;" parent="1" source="bHNSuGKCr-GM2xsOopNB-34" target="bHNSuGKCr-GM2xsOopNB-26" edge="1">
          <mxGeometry width="50" height="50" relative="1" as="geometry">
            <mxPoint x="415" y="478" as="sourcePoint" />
            <mxPoint x="578" y="375" as="targetPoint" />
            <Array as="points">
              <mxPoint x="514" y="378" />
            </Array>
          </mxGeometry>
        </mxCell>
        <mxCell id="bHNSuGKCr-GM2xsOopNB-39" value="" style="endArrow=classic;startArrow=classic;html=1;rounded=0;fillColor=#3399FF;strokeColor=#009999;exitX=0.49;exitY=1;exitDx=0;exitDy=0;exitPerimeter=0;" parent="1" source="bHNSuGKCr-GM2xsOopNB-34" target="bHNSuGKCr-GM2xsOopNB-25" edge="1">
          <mxGeometry width="50" height="50" relative="1" as="geometry">
            <mxPoint x="444" y="284" as="sourcePoint" />
            <mxPoint x="607" y="181" as="targetPoint" />
            <Array as="points" />
          </mxGeometry>
        </mxCell>
        <mxCell id="bHNSuGKCr-GM2xsOopNB-40" value="" style="verticalLabelPosition=bottom;html=1;verticalAlign=top;align=center;strokeColor=#009999;fillColor=#00BEF2;shape=mxgraph.azure.load_balancer_generic;pointerEvents=1;rotation=-90;" parent="1" vertex="1">
          <mxGeometry x="940" y="237" width="37.5" height="50" as="geometry" />
        </mxCell>
        <mxCell id="bHNSuGKCr-GM2xsOopNB-41" value="" style="endArrow=classic;startArrow=classic;html=1;rounded=0;fillColor=#3399FF;strokeColor=#009999;exitX=0.49;exitY=1;exitDx=0;exitDy=0;exitPerimeter=0;entryX=0;entryY=0.5;entryDx=0;entryDy=0;entryPerimeter=0;" parent="1" source="bHNSuGKCr-GM2xsOopNB-40" target="bHNSuGKCr-GM2xsOopNB-10" edge="1">
          <mxGeometry width="50" height="50" relative="1" as="geometry">
            <mxPoint x="1027.75" y="366.25" as="sourcePoint" />
            <mxPoint x="1191" y="278" as="targetPoint" />
            <Array as="points" />
          </mxGeometry>
        </mxCell>
        <mxCell id="bHNSuGKCr-GM2xsOopNB-42" value="" style="endArrow=classic;startArrow=classic;html=1;rounded=0;fillColor=#3399FF;strokeColor=#009999;entryX=0;entryY=0.5;entryDx=0;entryDy=0;entryPerimeter=0;exitX=0.49;exitY=1;exitDx=0;exitDy=0;exitPerimeter=0;" parent="1" source="bHNSuGKCr-GM2xsOopNB-40" target="bHNSuGKCr-GM2xsOopNB-12" edge="1">
          <mxGeometry width="50" height="50" relative="1" as="geometry">
            <mxPoint x="1027.7926136363635" y="403.75" as="sourcePoint" />
            <mxPoint x="1191" y="495" as="targetPoint" />
            <Array as="points" />
          </mxGeometry>
        </mxCell>
        <mxCell id="bHNSuGKCr-GM2xsOopNB-43" value="" style="endArrow=classic;startArrow=classic;html=1;rounded=0;fillColor=#3399FF;strokeColor=#009999;exitX=0.49;exitY=1;exitDx=0;exitDy=0;exitPerimeter=0;entryX=0;entryY=0.5;entryDx=0;entryDy=0;entryPerimeter=0;" parent="1" source="bHNSuGKCr-GM2xsOopNB-40" target="bHNSuGKCr-GM2xsOopNB-14" edge="1">
          <mxGeometry width="50" height="50" relative="1" as="geometry">
            <mxPoint x="1037.75" y="385.3750000000002" as="sourcePoint" />
            <mxPoint x="1153" y="386" as="targetPoint" />
            <Array as="points" />
          </mxGeometry>
        </mxCell>
        <mxCell id="bHNSuGKCr-GM2xsOopNB-52" value="" style="sketch=0;pointerEvents=1;shadow=0;dashed=0;html=1;strokeColor=#009999;labelPosition=center;verticalLabelPosition=bottom;verticalAlign=top;outlineConnect=0;align=center;shape=mxgraph.office.servers.virtual_application_server;fillColor=#2072B8;" parent="1" vertex="1">
          <mxGeometry x="372" y="140.5" width="48" height="55" as="geometry" />
        </mxCell>
        <mxCell id="bHNSuGKCr-GM2xsOopNB-53" value="" style="sketch=0;pointerEvents=1;shadow=0;dashed=0;html=1;strokeColor=#009999;labelPosition=center;verticalLabelPosition=bottom;verticalAlign=top;outlineConnect=0;align=center;shape=mxgraph.office.servers.virtual_application_server;fillColor=#2072B8;" parent="1" vertex="1">
          <mxGeometry x="371" y="260" width="48" height="55" as="geometry" />
        </mxCell>
        <mxCell id="bHNSuGKCr-GM2xsOopNB-54" value="" style="sketch=0;pointerEvents=1;shadow=0;dashed=0;html=1;strokeColor=#009999;labelPosition=center;verticalLabelPosition=bottom;verticalAlign=top;outlineConnect=0;align=center;shape=mxgraph.office.servers.virtual_application_server;fillColor=#2072B8;" parent="1" vertex="1">
          <mxGeometry x="372" y="357" width="48" height="55" as="geometry" />
        </mxCell>
        <mxCell id="bHNSuGKCr-GM2xsOopNB-55" value="Web Server 1" style="text;html=1;align=center;verticalAlign=middle;resizable=0;points=[];autosize=1;strokeColor=#;fillColor=none;" parent="1" vertex="1">
          <mxGeometry x="335" y="110.5" width="100" height="30" as="geometry" />
        </mxCell>
        <mxCell id="bHNSuGKCr-GM2xsOopNB-56" value="Web Server 2" style="text;html=1;align=center;verticalAlign=middle;resizable=0;points=[];autosize=1;strokeColor=#;fillColor=none;" parent="1" vertex="1">
          <mxGeometry x="335" y="230" width="100" height="30" as="geometry" />
        </mxCell>
        <mxCell id="bHNSuGKCr-GM2xsOopNB-57" value="Web Server 3" style="text;html=1;align=center;verticalAlign=middle;resizable=0;points=[];autosize=1;strokeColor=#;fillColor=none;" parent="1" vertex="1">
          <mxGeometry x="347" y="412" width="100" height="30" as="geometry" />
        </mxCell>
        <mxCell id="bHNSuGKCr-GM2xsOopNB-58" value="" style="verticalLabelPosition=bottom;html=1;verticalAlign=top;align=center;strokeColor=#009999;fillColor=#00BEF2;shape=mxgraph.azure.load_balancer_generic;pointerEvents=1;rotation=-90;" parent="1" vertex="1">
          <mxGeometry x="280" y="265" width="37.5" height="50" as="geometry" />
        </mxCell>
        <mxCell id="bHNSuGKCr-GM2xsOopNB-59" value="" style="endArrow=classic;startArrow=classic;html=1;rounded=0;fillColor=#3399FF;strokeColor=#009999;exitX=1;exitY=0.5;exitDx=0;exitDy=0;exitPerimeter=0;" parent="1" source="bHNSuGKCr-GM2xsOopNB-58" target="bHNSuGKCr-GM2xsOopNB-52" edge="1">
          <mxGeometry width="50" height="50" relative="1" as="geometry">
            <mxPoint x="50" y="290" as="sourcePoint" />
            <mxPoint x="100" y="240" as="targetPoint" />
            <Array as="points">
              <mxPoint x="300" y="170" />
            </Array>
          </mxGeometry>
        </mxCell>
        <mxCell id="bHNSuGKCr-GM2xsOopNB-60" value="" style="endArrow=classic;startArrow=classic;html=1;rounded=0;fillColor=#3399FF;strokeColor=#009999;" parent="1" source="bHNSuGKCr-GM2xsOopNB-58" target="bHNSuGKCr-GM2xsOopNB-54" edge="1">
          <mxGeometry width="50" height="50" relative="1" as="geometry">
            <mxPoint x="200" y="485" as="sourcePoint" />
            <mxPoint x="363" y="382" as="targetPoint" />
            <Array as="points">
              <mxPoint x="299" y="385" />
            </Array>
          </mxGeometry>
        </mxCell>
        <mxCell id="bHNSuGKCr-GM2xsOopNB-61" value="" style="endArrow=classic;startArrow=classic;html=1;rounded=0;fillColor=#3399FF;strokeColor=#009999;exitX=0.49;exitY=1;exitDx=0;exitDy=0;exitPerimeter=0;" parent="1" source="bHNSuGKCr-GM2xsOopNB-58" target="bHNSuGKCr-GM2xsOopNB-53" edge="1">
          <mxGeometry width="50" height="50" relative="1" as="geometry">
            <mxPoint x="229" y="291" as="sourcePoint" />
            <mxPoint x="392" y="188" as="targetPoint" />
            <Array as="points" />
          </mxGeometry>
        </mxCell>
        <mxCell id="bHNSuGKCr-GM2xsOopNB-62" value="" style="endArrow=classic;startArrow=classic;html=1;rounded=0;fillColor=#3399FF;strokeColor=#009999;entryX=0.5;entryY=0;entryDx=0;entryDy=0;entryPerimeter=0;" parent="1" source="bHNSuGKCr-GM2xsOopNB-52" edge="1">
          <mxGeometry width="50" height="50" relative="1" as="geometry">
            <mxPoint x="309" y="281" as="sourcePoint" />
            <mxPoint x="492" y="285" as="targetPoint" />
            <Array as="points">
              <mxPoint x="450" y="240" />
            </Array>
          </mxGeometry>
        </mxCell>
        <mxCell id="bHNSuGKCr-GM2xsOopNB-63" value="" style="endArrow=classic;startArrow=classic;html=1;rounded=0;fillColor=#3399FF;strokeColor=#009999;entryX=0.5;entryY=0;entryDx=0;entryDy=0;entryPerimeter=0;" parent="1" source="bHNSuGKCr-GM2xsOopNB-53" edge="1">
          <mxGeometry width="50" height="50" relative="1" as="geometry">
            <mxPoint x="80" y="185" as="sourcePoint" />
            <mxPoint x="492" y="285" as="targetPoint" />
            <Array as="points" />
          </mxGeometry>
        </mxCell>
        <mxCell id="bHNSuGKCr-GM2xsOopNB-64" value="" style="endArrow=classic;startArrow=classic;html=1;rounded=0;fillColor=#3399FF;strokeColor=#009999;entryX=0.5;entryY=0;entryDx=0;entryDy=0;entryPerimeter=0;" parent="1" source="bHNSuGKCr-GM2xsOopNB-54" edge="1">
          <mxGeometry width="50" height="50" relative="1" as="geometry">
            <mxPoint x="430" y="380" as="sourcePoint" />
            <mxPoint x="492" y="285" as="targetPoint" />
            <Array as="points" />
          </mxGeometry>
        </mxCell>
        <mxCell id="bHNSuGKCr-GM2xsOopNB-83" value="" style="image;aspect=fixed;perimeter=ellipsePerimeter;html=1;align=center;shadow=0;dashed=0;spacingTop=3;image=img/lib/active_directory/users.svg;strokeColor=#009999;" parent="1" vertex="1">
          <mxGeometry x="30" y="266" width="33" height="50" as="geometry" />
        </mxCell>
        <mxCell id="bHNSuGKCr-GM2xsOopNB-84" value="" style="endArrow=classic;startArrow=classic;html=1;rounded=0;fillColor=#3399FF;strokeColor=#009999;" parent="1" source="bHNSuGKCr-GM2xsOopNB-83" target="bHNSuGKCr-GM2xsOopNB-5" edge="1">
          <mxGeometry width="50" height="50" relative="1" as="geometry">
            <mxPoint x="83" y="294" as="sourcePoint" />
            <mxPoint x="125.99999999999977" y="290.286995515695" as="targetPoint" />
            <Array as="points" />
          </mxGeometry>
        </mxCell>
        <mxCell id="bHNSuGKCr-GM2xsOopNB-87" value="" style="endArrow=classic;startArrow=classic;html=1;rounded=0;fillColor=#3399FF;strokeColor=#009999;entryX=0.5;entryY=0;entryDx=0;entryDy=0;entryPerimeter=0;" parent="1" source="bHNSuGKCr-GM2xsOopNB-5" target="bHNSuGKCr-GM2xsOopNB-58" edge="1">
          <mxGeometry width="50" height="50" relative="1" as="geometry">
            <mxPoint x="190" y="290" as="sourcePoint" />
            <mxPoint x="230" y="304" as="targetPoint" />
            <Array as="points" />
          </mxGeometry>
        </mxCell>
        <mxCell id="bHNSuGKCr-GM2xsOopNB-89" value="Web &lt;br&gt;Browser" style="text;html=1;align=center;verticalAlign=middle;resizable=0;points=[];autosize=1;strokeColor=#;fillColor=none;" parent="1" vertex="1">
          <mxGeometry x="195" y="291" width="70" height="40" as="geometry" />
        </mxCell>
        <mxCell id="bHNSuGKCr-GM2xsOopNB-90" value="Mobile Or Tablets Apps" style="text;html=1;align=center;verticalAlign=middle;resizable=0;points=[];autosize=1;strokeColor=#;fillColor=none;" parent="1" vertex="1">
          <mxGeometry x="158.5" y="430" width="150" height="30" as="geometry" />
        </mxCell>
        <mxCell id="bHNSuGKCr-GM2xsOopNB-91" value="" style="endArrow=classic;startArrow=classic;html=1;rounded=0;fillColor=#3399FF;strokeColor=#009999;" parent="1" source="bHNSuGKCr-GM2xsOopNB-4" edge="1">
          <mxGeometry width="50" height="50" relative="1" as="geometry">
            <mxPoint x="158" y="415" as="sourcePoint" />
            <mxPoint x="495" y="284" as="targetPoint" />
            <Array as="points">
              <mxPoint x="38" y="462" />
              <mxPoint x="158" y="462" />
              <mxPoint x="375" y="462" />
              <mxPoint x="495" y="462" />
            </Array>
          </mxGeometry>
        </mxCell>
        <mxCell id="bHNSuGKCr-GM2xsOopNB-121" value="DB Load &lt;br&gt;Balancer" style="text;html=1;align=center;verticalAlign=middle;resizable=0;points=[];autosize=1;strokeColor=#;fillColor=none;" parent="1" vertex="1">
          <mxGeometry x="940" y="192" width="70" height="40" as="geometry" />
        </mxCell>
        <mxCell id="bHNSuGKCr-GM2xsOopNB-122" value="API Load &lt;br&gt;Balancer" style="text;html=1;align=center;verticalAlign=middle;resizable=0;points=[];autosize=1;strokeColor=#;fillColor=none;" parent="1" vertex="1">
          <mxGeometry x="512" y="304" width="70" height="40" as="geometry" />
        </mxCell>
        <mxCell id="bHNSuGKCr-GM2xsOopNB-123" value="Web Load &lt;br&gt;Balancer" style="text;html=1;align=center;verticalAlign=middle;resizable=0;points=[];autosize=1;strokeColor=#;fillColor=none;" parent="1" vertex="1">
          <mxGeometry x="220" y="244" width="80" height="40" as="geometry" />
        </mxCell>
        <mxCell id="bHNSuGKCr-GM2xsOopNB-4" value="" style="html=1;verticalLabelPosition=bottom;align=center;labelBackgroundColor=#ffffff;verticalAlign=top;strokeWidth=2;strokeColor=#009999;shadow=0;dashed=0;shape=mxgraph.ios7.icons.smartphone;" parent="1" vertex="1">
          <mxGeometry x="29.5" y="376" width="18" height="30" as="geometry" />
        </mxCell>
        <mxCell id="bHNSuGKCr-GM2xsOopNB-5" value="" style="image;aspect=fixed;perimeter=ellipsePerimeter;html=1;align=center;shadow=0;dashed=0;spacingTop=3;image=img/lib/active_directory/laptop_client.svg;strokeColor=#009999;" parent="1" vertex="1">
          <mxGeometry x="131" y="265" width="45" height="50" as="geometry" />
        </mxCell>
        <mxCell id="bHNSuGKCr-GM2xsOopNB-209" value="" style="endArrow=classic;startArrow=classic;html=1;rounded=0;fillColor=#3399FF;strokeColor=#009999;exitX=0.25;exitY=1;exitDx=0;exitDy=0;" parent="1" source="bHNSuGKCr-GM2xsOopNB-83" target="bHNSuGKCr-GM2xsOopNB-4" edge="1">
          <mxGeometry width="50" height="50" relative="1" as="geometry">
            <mxPoint x="70" y="346" as="sourcePoint" />
            <mxPoint x="138" y="345" as="targetPoint" />
            <Array as="points" />
          </mxGeometry>
        </mxCell>
        <mxCell id="bHNSuGKCr-GM2xsOopNB-222" value="&lt;font style=&quot;font-size: 36px;&quot;&gt;HealthFit - On Premise Infrastructure&lt;/font&gt;" style="text;html=1;strokeColor=none;fillColor=none;align=center;verticalAlign=middle;whiteSpace=wrap;rounded=0;fontStyle=1" parent="1" vertex="1">
          <mxGeometry x="-10" y="-80" width="700.37" height="65" as="geometry" />
        </mxCell>
        <mxCell id="H5C0eg-R2kAyeyn0-KI7-10" value="" style="endArrow=classic;startArrow=classic;html=1;rounded=0;fillColor=#3399FF;strokeColor=#009999;exitX=0.006;exitY=0.524;exitDx=0;exitDy=0;exitPerimeter=0;" parent="1" source="lGJtUz93SkCy1eqDTOxt-8" target="bHNSuGKCr-GM2xsOopNB-24" edge="1">
          <mxGeometry width="50" height="50" relative="1" as="geometry">
            <mxPoint x="682.25" y="279" as="sourcePoint" />
            <mxPoint x="542" y="335" as="targetPoint" />
            <Array as="points" />
          </mxGeometry>
        </mxCell>
        <mxCell id="H5C0eg-R2kAyeyn0-KI7-11" value="" style="endArrow=classic;startArrow=classic;html=1;rounded=0;fillColor=#3399FF;strokeColor=#009999;exitX=0.006;exitY=0.528;exitDx=0;exitDy=0;exitPerimeter=0;" parent="1" source="lGJtUz93SkCy1eqDTOxt-8" target="bHNSuGKCr-GM2xsOopNB-25" edge="1">
          <mxGeometry width="50" height="50" relative="1" as="geometry">
            <mxPoint x="682.25" y="279" as="sourcePoint" />
            <mxPoint x="552" y="345" as="targetPoint" />
            <Array as="points" />
          </mxGeometry>
        </mxCell>
        <mxCell id="H5C0eg-R2kAyeyn0-KI7-12" value="" style="endArrow=classic;startArrow=classic;html=1;rounded=0;fillColor=#3399FF;strokeColor=#009999;exitX=0.019;exitY=0.539;exitDx=0;exitDy=0;exitPerimeter=0;" parent="1" source="lGJtUz93SkCy1eqDTOxt-8" target="bHNSuGKCr-GM2xsOopNB-26" edge="1">
          <mxGeometry width="50" height="50" relative="1" as="geometry">
            <mxPoint x="682.25" y="279" as="sourcePoint" />
            <mxPoint x="644" y="290" as="targetPoint" />
            <Array as="points" />
          </mxGeometry>
        </mxCell>
        <mxCell id="lGJtUz93SkCy1eqDTOxt-9" value="" style="group" vertex="1" connectable="0" parent="1">
          <mxGeometry x="432" y="590" width="400" height="63" as="geometry" />
        </mxCell>
        <mxCell id="bHNSuGKCr-GM2xsOopNB-211" value="/Publisher/Journal/version/Static Files/ e.g. 1/1/1/coverphoto.jpg" style="text;html=1;align=center;verticalAlign=middle;resizable=0;points=[];autosize=1;strokeColor=#;fillColor=none;" parent="lGJtUz93SkCy1eqDTOxt-9" vertex="1">
          <mxGeometry y="16" width="360" height="30" as="geometry" />
        </mxCell>
        <mxCell id="bHNSuGKCr-GM2xsOopNB-212" value="Directly access with Url as its Static Non Sensitive Data" style="text;html=1;align=center;verticalAlign=middle;resizable=0;points=[];autosize=1;strokeColor=#;fillColor=none;" parent="lGJtUz93SkCy1eqDTOxt-9" vertex="1">
          <mxGeometry x="37.5" y="33" width="320" height="30" as="geometry" />
        </mxCell>
        <mxCell id="bHNSuGKCr-GM2xsOopNB-213" value="" style="shape=mxgraph.cisco.servers.fileserver;html=1;pointerEvents=1;dashed=0;fillColor=#036897;strokeColor=#ffffff;strokeWidth=2;verticalLabelPosition=bottom;verticalAlign=top;align=center;outlineConnect=0;" parent="lGJtUz93SkCy1eqDTOxt-9" vertex="1">
          <mxGeometry x="357" width="43" height="62" as="geometry" />
        </mxCell>
        <mxCell id="lGJtUz93SkCy1eqDTOxt-1" value="Static File Storage Server&amp;nbsp;" style="text;html=1;align=center;verticalAlign=middle;resizable=0;points=[];autosize=1;strokeColor=#;fillColor=none;" vertex="1" parent="lGJtUz93SkCy1eqDTOxt-9">
          <mxGeometry x="198.5" y="1" width="160" height="30" as="geometry" />
        </mxCell>
        <mxCell id="lGJtUz93SkCy1eqDTOxt-14" value="" style="group" vertex="1" connectable="0" parent="1">
          <mxGeometry x="733" y="-15" width="159" height="555" as="geometry" />
        </mxCell>
        <mxCell id="lGJtUz93SkCy1eqDTOxt-8" value="" style="rounded=1;whiteSpace=wrap;html=1;strokeColor=#009999;" vertex="1" parent="lGJtUz93SkCy1eqDTOxt-14">
          <mxGeometry width="159" height="555" as="geometry" />
        </mxCell>
        <mxCell id="H5C0eg-R2kAyeyn0-KI7-2" value="Services" style="html=1;whiteSpace=wrap;strokeColor=none;fillColor=#0079D6;labelPosition=center;verticalLabelPosition=middle;verticalAlign=top;align=center;fontSize=12;outlineConnect=0;spacingTop=-6;fontColor=#FFFFFF;sketch=0;shape=mxgraph.sitemap.services;" parent="lGJtUz93SkCy1eqDTOxt-14" vertex="1">
          <mxGeometry x="35" y="292" width="80" height="44" as="geometry" />
        </mxCell>
        <mxCell id="H5C0eg-R2kAyeyn0-KI7-3" value="Services" style="html=1;whiteSpace=wrap;strokeColor=none;fillColor=#0079D6;labelPosition=center;verticalLabelPosition=middle;verticalAlign=top;align=center;fontSize=12;outlineConnect=0;spacingTop=-6;fontColor=#FFFFFF;sketch=0;shape=mxgraph.sitemap.services;" parent="lGJtUz93SkCy1eqDTOxt-14" vertex="1">
          <mxGeometry x="35" y="381.5" width="80" height="44" as="geometry" />
        </mxCell>
        <mxCell id="H5C0eg-R2kAyeyn0-KI7-5" value="Services" style="html=1;whiteSpace=wrap;strokeColor=none;fillColor=#0079D6;labelPosition=center;verticalLabelPosition=middle;verticalAlign=top;align=center;fontSize=12;outlineConnect=0;spacingTop=-6;fontColor=#FFFFFF;sketch=0;shape=mxgraph.sitemap.services;" parent="lGJtUz93SkCy1eqDTOxt-14" vertex="1">
          <mxGeometry x="36" y="478" width="80" height="44" as="geometry" />
        </mxCell>
        <mxCell id="H5C0eg-R2kAyeyn0-KI7-22" value="User" style="text;html=1;align=center;verticalAlign=middle;resizable=0;points=[];autosize=1;strokeColor=#;fillColor=none;" parent="lGJtUz93SkCy1eqDTOxt-14" vertex="1">
          <mxGeometry x="50" y="269" width="50" height="30" as="geometry" />
        </mxCell>
        <mxCell id="H5C0eg-R2kAyeyn0-KI7-23" value="Jouranl" style="text;html=1;align=center;verticalAlign=middle;resizable=0;points=[];autosize=1;strokeColor=#;fillColor=none;" parent="lGJtUz93SkCy1eqDTOxt-14" vertex="1">
          <mxGeometry x="51" y="358.5" width="60" height="30" as="geometry" />
        </mxCell>
        <mxCell id="H5C0eg-R2kAyeyn0-KI7-24" value="DMS" style="text;html=1;align=center;verticalAlign=middle;resizable=0;points=[];autosize=1;strokeColor=#;fillColor=none;" parent="lGJtUz93SkCy1eqDTOxt-14" vertex="1">
          <mxGeometry x="53" y="452" width="50" height="30" as="geometry" />
        </mxCell>
        <mxCell id="lGJtUz93SkCy1eqDTOxt-2" value="Services" style="html=1;whiteSpace=wrap;strokeColor=none;fillColor=#0079D6;labelPosition=center;verticalLabelPosition=middle;verticalAlign=top;align=center;fontSize=12;outlineConnect=0;spacingTop=-6;fontColor=#FFFFFF;sketch=0;shape=mxgraph.sitemap.services;" vertex="1" parent="lGJtUz93SkCy1eqDTOxt-14">
          <mxGeometry x="32" y="212.5" width="80" height="44" as="geometry" />
        </mxCell>
        <mxCell id="lGJtUz93SkCy1eqDTOxt-3" value="Others" style="text;html=1;align=center;verticalAlign=middle;resizable=0;points=[];autosize=1;strokeColor=#;fillColor=none;" vertex="1" parent="lGJtUz93SkCy1eqDTOxt-14">
          <mxGeometry x="45" y="187.5" width="60" height="30" as="geometry" />
        </mxCell>
        <mxCell id="lGJtUz93SkCy1eqDTOxt-4" value="Services" style="html=1;whiteSpace=wrap;strokeColor=none;fillColor=#0079D6;labelPosition=center;verticalLabelPosition=middle;verticalAlign=top;align=center;fontSize=12;outlineConnect=0;spacingTop=-6;fontColor=#FFFFFF;sketch=0;shape=mxgraph.sitemap.services;" vertex="1" parent="lGJtUz93SkCy1eqDTOxt-14">
          <mxGeometry x="33" y="127" width="80" height="44" as="geometry" />
        </mxCell>
        <mxCell id="lGJtUz93SkCy1eqDTOxt-5" value="Email" style="text;html=1;align=center;verticalAlign=middle;resizable=0;points=[];autosize=1;strokeColor=#;fillColor=none;" vertex="1" parent="lGJtUz93SkCy1eqDTOxt-14">
          <mxGeometry x="51" y="104" width="50" height="30" as="geometry" />
        </mxCell>
        <mxCell id="lGJtUz93SkCy1eqDTOxt-6" value="Services" style="html=1;whiteSpace=wrap;strokeColor=none;fillColor=#0079D6;labelPosition=center;verticalLabelPosition=middle;verticalAlign=top;align=center;fontSize=12;outlineConnect=0;spacingTop=-6;fontColor=#FFFFFF;sketch=0;shape=mxgraph.sitemap.services;" vertex="1" parent="lGJtUz93SkCy1eqDTOxt-14">
          <mxGeometry x="35" y="45" width="80" height="44" as="geometry" />
        </mxCell>
        <mxCell id="lGJtUz93SkCy1eqDTOxt-7" value="Payments" style="text;html=1;align=center;verticalAlign=middle;resizable=0;points=[];autosize=1;strokeColor=#;fillColor=none;" vertex="1" parent="lGJtUz93SkCy1eqDTOxt-14">
          <mxGeometry x="38" y="22" width="80" height="30" as="geometry" />
        </mxCell>
        <mxCell id="lGJtUz93SkCy1eqDTOxt-13" value="" style="group" vertex="1" connectable="0" parent="1">
          <mxGeometry x="923.5" y="424" width="402.5" height="93" as="geometry" />
        </mxCell>
        <mxCell id="bHNSuGKCr-GM2xsOopNB-168" value="File Storage Server 1X" style="text;html=1;align=center;verticalAlign=middle;resizable=0;points=[];autosize=1;strokeColor=#;fillColor=none;" parent="lGJtUz93SkCy1eqDTOxt-13" vertex="1">
          <mxGeometry width="140" height="30" as="geometry" />
        </mxCell>
        <mxCell id="lGJtUz93SkCy1eqDTOxt-12" value="" style="group" vertex="1" connectable="0" parent="lGJtUz93SkCy1eqDTOxt-13">
          <mxGeometry y="25" width="402.5" height="68" as="geometry" />
        </mxCell>
        <mxCell id="bHNSuGKCr-GM2xsOopNB-102" value="/Publisher/Journal/version/Journal File/ e.g. 1/1/1/journalfile.pdf&amp;nbsp;" style="text;html=1;align=center;verticalAlign=middle;resizable=0;points=[];autosize=1;strokeColor=#;fillColor=none;" parent="lGJtUz93SkCy1eqDTOxt-12" vertex="1">
          <mxGeometry x="42.5" width="360" height="30" as="geometry" />
        </mxCell>
        <mxCell id="bHNSuGKCr-GM2xsOopNB-115" value="Read Only Access Token with expirations" style="text;html=1;align=center;verticalAlign=middle;resizable=0;points=[];autosize=1;strokeColor=#;fillColor=none;" parent="lGJtUz93SkCy1eqDTOxt-12" vertex="1">
          <mxGeometry x="42.5" y="18" width="240" height="30" as="geometry" />
        </mxCell>
        <mxCell id="bHNSuGKCr-GM2xsOopNB-120" value="Enabled Solr Indexer for fast document finding and processing" style="text;html=1;align=center;verticalAlign=middle;resizable=0;points=[];autosize=1;strokeColor=#;fillColor=none;" parent="lGJtUz93SkCy1eqDTOxt-12" vertex="1">
          <mxGeometry x="41" y="38" width="360" height="30" as="geometry" />
        </mxCell>
        <mxCell id="bHNSuGKCr-GM2xsOopNB-167" value="" style="shape=mxgraph.cisco.servers.fileserver;html=1;pointerEvents=1;dashed=0;fillColor=#036897;strokeColor=#ffffff;strokeWidth=2;verticalLabelPosition=bottom;verticalAlign=top;align=center;outlineConnect=0;" parent="lGJtUz93SkCy1eqDTOxt-12" vertex="1">
          <mxGeometry y="3" width="43" height="62" as="geometry" />
        </mxCell>
        <mxCell id="lGJtUz93SkCy1eqDTOxt-10" value="" style="endArrow=classic;startArrow=classic;html=1;rounded=0;fillColor=#3399FF;strokeColor=#009999;exitX=0.5;exitY=1;exitDx=0;exitDy=0;exitPerimeter=0;entryX=0.5;entryY=0;entryDx=0;entryDy=0;entryPerimeter=0;" edge="1" parent="1" source="H5C0eg-R2kAyeyn0-KI7-5" target="bHNSuGKCr-GM2xsOopNB-213">
          <mxGeometry width="50" height="50" relative="1" as="geometry">
            <mxPoint x="540" y="456" as="sourcePoint" />
            <mxPoint x="613" y="532" as="targetPoint" />
            <Array as="points" />
          </mxGeometry>
        </mxCell>
        <mxCell id="lGJtUz93SkCy1eqDTOxt-15" value="" style="endArrow=classic;startArrow=classic;html=1;rounded=0;fillColor=#3399FF;strokeColor=#009999;entryX=0;entryY=0.5;entryDx=0;entryDy=0;entryPerimeter=0;exitX=1;exitY=0.5;exitDx=0;exitDy=0;exitPerimeter=0;" edge="1" parent="1" source="H5C0eg-R2kAyeyn0-KI7-5">
          <mxGeometry width="50" height="50" relative="1" as="geometry">
            <mxPoint x="980" y="600" as="sourcePoint" />
            <mxPoint x="924" y="483" as="targetPoint" />
            <Array as="points" />
          </mxGeometry>
        </mxCell>
        <mxCell id="lGJtUz93SkCy1eqDTOxt-16" value="" style="endArrow=classic;startArrow=classic;html=1;rounded=0;fillColor=#3399FF;strokeColor=#009999;entryX=1;entryY=0.5;entryDx=0;entryDy=0;exitX=0.5;exitY=0;exitDx=0;exitDy=0;exitPerimeter=0;" edge="1" parent="1" source="bHNSuGKCr-GM2xsOopNB-40" target="lGJtUz93SkCy1eqDTOxt-8">
          <mxGeometry width="50" height="50" relative="1" as="geometry">
            <mxPoint x="990" y="610" as="sourcePoint" />
            <mxPoint x="934" y="493" as="targetPoint" />
            <Array as="points" />
          </mxGeometry>
        </mxCell>
      </root>
    </mxGraphModel>
  </diagram>
</mxfile>
